# xmcd
#
# Track frame offsets: 
#        150
#        16374
#        33196
#
# Disc length: 663 seconds
#
# Revision: 8
# Processed by: cddbd v1.5.2PL0 Copyright (c) Steve Scherf et al.
# Submitted via: ExactAudioCopyFreeDBPlugin 1.0
#
DISCID=17029503
DTITLE=Smokie - MAXI For A Few Dollars More - Selected Singles 75-78 [
DTITLE=cd8.10]
DYEAR=2003
DGENRE=Pop
TTITLE0=For A Few Dollars More (1978)
TTITLE1=Going Tomorrow (1978)
TTITLE2=For A Few Dollars More - LIVE (1978)
EXTD=
EXTT0=
EXTT1=
EXTT2=
PLAYORDER=
